<svg width="14" height="9" viewBox="0 0 14 9" fill="none" xmlns="http://www.w3.org/2000/svg">
<path d="M4.854 3.146C4.80755 3.09944 4.75238 3.06249 4.69163 3.03729C4.63089 3.01208 4.56577 2.99911 4.5 2.99911C4.43423 2.99911 4.36911 3.01208 4.30837 3.03729C4.24762 3.06249 4.19245 3.09944 4.146 3.146L3.5 3.793L2.854 3.146C2.80751 3.09951 2.75232 3.06264 2.69158 3.03748C2.63084 3.01232 2.56574 2.99937 2.5 2.99937C2.43426 2.99937 2.36916 3.01232 2.30842 3.03748C2.24768 3.06264 2.19249 3.09951 2.146 3.146C2.09951 3.19249 2.06264 3.24768 2.03748 3.30842C2.01232 3.36916 1.99937 3.43426 1.99937 3.5C1.99937 3.56574 2.01232 3.63084 2.03748 3.69158C2.06264 3.75232 2.09951 3.80751 2.146 3.854L2.793 4.5L2.146 5.146C2.09951 5.19249 2.06264 5.24768 2.03748 5.30842C2.01232 5.36916 1.99937 5.43426 1.99937 5.5C1.99937 5.56574 2.01232 5.63084 2.03748 5.69158C2.06264 5.75232 2.09951 5.80751 2.146 5.854C2.23989 5.94789 2.36722 6.00063 2.5 6.00063C2.56574 6.00063 2.63084 5.98768 2.69158 5.96252C2.75232 5.93736 2.80751 5.90049 2.854 5.854L3.5 5.207L4.146 5.854C4.19249 5.90049 4.24768 5.93736 4.30842 5.96252C4.36916 5.98768 4.43426 6.00063 4.5 6.00063C4.56574 6.00063 4.63084 5.98768 4.69158 5.96252C4.75232 5.93736 4.80751 5.90049 4.854 5.854C4.90049 5.80751 4.93736 5.75232 4.96252 5.69158C4.98768 5.63084 5.00063 5.56574 5.00063 5.5C5.00063 5.43426 4.98768 5.36916 4.96252 5.30842C4.93736 5.24768 4.90049 5.19249 4.854 5.146L4.207 4.5L4.854 3.854C4.90056 3.80755 4.93751 3.75238 4.96271 3.69163C4.98792 3.63089 5.00089 3.56577 5.00089 3.5C5.00089 3.43423 4.98792 3.36911 4.96271 3.30837C4.93751 3.24762 4.90056 3.19245 4.854 3.146ZM8.146 3.146C8.19249 3.09951 8.24768 3.06264 8.30842 3.03748C8.36916 3.01232 8.43426 2.99937 8.5 2.99937C8.56574 2.99937 8.63084 3.01232 8.69158 3.03748C8.75232 3.06264 8.80751 3.09951 8.854 3.146C8.90049 3.19249 8.93736 3.24768 8.96252 3.30842C8.98768 3.36916 9.00063 3.43426 9.00063 3.5C9.00063 3.56574 8.98768 3.63084 8.96252 3.69158C8.93736 3.75232 8.90049 3.80751 8.854 3.854L8.207 4.5L8.854 5.146C8.94789 5.23989 9.00063 5.36722 9.00063 5.5C9.00063 5.63278 8.94789 5.76011 8.854 5.854C8.76011 5.94789 8.63278 6.00063 8.5 6.00063C8.36722 6.00063 8.23989 5.94789 8.146 5.854L7.5 5.207L6.854 5.854C6.80751 5.90049 6.75232 5.93736 6.69158 5.96252C6.63084 5.98768 6.56574 6.00063 6.5 6.00063C6.43426 6.00063 6.36916 5.98768 6.30842 5.96252C6.24768 5.93736 6.19249 5.90049 6.146 5.854C6.09951 5.80751 6.06264 5.75232 6.03748 5.69158C6.01232 5.63084 5.99937 5.56574 5.99937 5.5C5.99937 5.43426 6.01232 5.36916 6.03748 5.30842C6.06264 5.24768 6.09951 5.19249 6.146 5.146L6.793 4.5L6.146 3.854C6.09951 3.80751 6.06264 3.75232 6.03748 3.69158C6.01232 3.63084 5.99937 3.56574 5.99937 3.5C5.99937 3.43426 6.01232 3.36916 6.03748 3.30842C6.06264 3.24768 6.09951 3.19249 6.146 3.146C6.19249 3.09951 6.24768 3.06264 6.30842 3.03748C6.36916 3.01232 6.43426 2.99937 6.5 2.99937C6.56574 2.99937 6.63084 3.01232 6.69158 3.03748C6.75232 3.06264 6.80751 3.09951 6.854 3.146L7.5 3.793L8.146 3.146V3.146ZM10.5 5C10.3674 5 10.2402 5.05268 10.1464 5.14645C10.0527 5.24021 10 5.36739 10 5.5C10 5.63261 10.0527 5.75979 10.1464 5.85355C10.2402 5.94732 10.3674 6 10.5 6H11.5C11.6326 6 11.7598 5.94732 11.8536 5.85355C11.9473 5.75979 12 5.63261 12 5.5C12 5.36739 11.9473 5.24021 11.8536 5.14645C11.7598 5.05268 11.6326 5 11.5 5H10.5ZM2.5 0C1.83696 0 1.20107 0.263392 0.732233 0.732233C0.263392 1.20107 0 1.83696 0 2.5V6.5C0 6.8283 0.0646644 7.15339 0.190301 7.45671C0.315938 7.76002 0.500087 8.03562 0.732233 8.26777C1.20107 8.73661 1.83696 9 2.5 9H11.5C11.8283 9 12.1534 8.93534 12.4567 8.8097C12.76 8.68406 13.0356 8.49991 13.2678 8.26777C13.4999 8.03562 13.6841 7.76002 13.8097 7.45671C13.9353 7.15339 14 6.8283 14 6.5V2.5C14 1.83696 13.7366 1.20107 13.2678 0.732233C12.7989 0.263392 12.163 0 11.5 0H2.5ZM1 2.5C1 2.10218 1.15804 1.72064 1.43934 1.43934C1.72064 1.15804 2.10218 1 2.5 1H11.5C11.8978 1 12.2794 1.15804 12.5607 1.43934C12.842 1.72064 13 2.10218 13 2.5V6.5C13 6.89782 12.842 7.27936 12.5607 7.56066C12.2794 7.84196 11.8978 8 11.5 8H2.5C2.10218 8 1.72064 7.84196 1.43934 7.56066C1.15804 7.27936 1 6.89782 1 6.5V2.5Z" fill="black"/>
</svg>
