<svg width="14" height="9" viewBox="0 0 14 9" fill="none" xmlns="http://www.w3.org/2000/svg">
<path d="M0 2.5C0 1.83696 0.263392 1.20107 0.732233 0.732233C1.20107 0.263392 1.83696 0 2.5 0H11.5C12.163 0 12.7989 0.263392 13.2678 0.732233C13.7366 1.20107 14 1.83696 14 2.5V6.5C14 6.8283 13.9353 7.15339 13.8097 7.45671C13.6841 7.76002 13.4999 8.03562 13.2678 8.26777C13.0356 8.49991 12.76 8.68406 12.4567 8.8097C12.1534 8.93534 11.8283 9 11.5 9H2.5C1.83696 9 1.20107 8.73661 0.732233 8.26777C0.263392 7.79893 0 7.16304 0 6.5V2.5ZM4.146 3.146L3.5 3.793L2.854 3.146C2.80751 3.09951 2.75232 3.06264 2.69158 3.03748C2.63084 3.01232 2.56574 2.99937 2.5 2.99937C2.43426 2.99937 2.36916 3.01232 2.30842 3.03748C2.24768 3.06264 2.19249 3.09951 2.146 3.146C2.09951 3.19249 2.06264 3.24768 2.03748 3.30842C2.01232 3.36916 1.99937 3.43426 1.99937 3.5C1.99937 3.56574 2.01232 3.63084 2.03748 3.69158C2.06264 3.75232 2.09951 3.80751 2.146 3.854L2.793 4.5L2.146 5.146C2.09951 5.19249 2.06264 5.24768 2.03748 5.30842C2.01232 5.36916 1.99937 5.43426 1.99937 5.5C1.99937 5.56574 2.01232 5.63084 2.03748 5.69158C2.06264 5.75232 2.09951 5.80751 2.146 5.854C2.23989 5.94789 2.36722 6.00063 2.5 6.00063C2.56574 6.00063 2.63084 5.98768 2.69158 5.96252C2.75232 5.93736 2.80751 5.90049 2.854 5.854L3.5 5.207L4.146 5.854C4.19249 5.90049 4.24768 5.93736 4.30842 5.96252C4.36916 5.98768 4.43426 6.00063 4.5 6.00063C4.56574 6.00063 4.63084 5.98768 4.69158 5.96252C4.75232 5.93736 4.80751 5.90049 4.854 5.854C4.90049 5.80751 4.93736 5.75232 4.96252 5.69158C4.98768 5.63084 5.00063 5.56574 5.00063 5.5C5.00063 5.43426 4.98768 5.36916 4.96252 5.30842C4.93736 5.24768 4.90049 5.19249 4.854 5.146L4.207 4.5L4.854 3.854C4.90049 3.80751 4.93736 3.75232 4.96252 3.69158C4.98768 3.63084 5.00063 3.56574 5.00063 3.5C5.00063 3.43426 4.98768 3.36916 4.96252 3.30842C4.93736 3.24768 4.90049 3.19249 4.854 3.146C4.80751 3.09951 4.75232 3.06264 4.69158 3.03748C4.63084 3.01232 4.56574 2.99937 4.5 2.99937C4.43426 2.99937 4.36916 3.01232 4.30842 3.03748C4.24768 3.06264 4.19249 3.09951 4.146 3.146V3.146ZM8.146 3.146L7.5 3.793L6.854 3.146C6.80751 3.09951 6.75232 3.06264 6.69158 3.03748C6.63084 3.01232 6.56574 2.99937 6.5 2.99937C6.43426 2.99937 6.36916 3.01232 6.30842 3.03748C6.24768 3.06264 6.19249 3.09951 6.146 3.146C6.09951 3.19249 6.06264 3.24768 6.03748 3.30842C6.01232 3.36916 5.99937 3.43426 5.99937 3.5C5.99937 3.56574 6.01232 3.63084 6.03748 3.69158C6.06264 3.75232 6.09951 3.80751 6.146 3.854L6.793 4.5L6.146 5.146C6.09951 5.19249 6.06264 5.24768 6.03748 5.30842C6.01232 5.36916 5.99937 5.43426 5.99937 5.5C5.99937 5.56574 6.01232 5.63084 6.03748 5.69158C6.06264 5.75232 6.09951 5.80751 6.146 5.854C6.23989 5.94789 6.36722 6.00063 6.5 6.00063C6.56574 6.00063 6.63084 5.98768 6.69158 5.96252C6.75232 5.93736 6.80751 5.90049 6.854 5.854L7.5 5.207L8.146 5.854C8.23989 5.94789 8.36722 6.00063 8.5 6.00063C8.63278 6.00063 8.76011 5.94789 8.854 5.854C8.94789 5.76011 9.00063 5.63278 9.00063 5.5C9.00063 5.36722 8.94789 5.23989 8.854 5.146L8.207 4.5L8.854 3.854C8.94789 3.76011 9.00063 3.63278 9.00063 3.5C9.00063 3.36722 8.94789 3.23989 8.854 3.146C8.76011 3.05211 8.63278 2.99937 8.5 2.99937C8.36722 2.99937 8.23989 3.05211 8.146 3.146V3.146ZM10 5.5C10 5.63261 10.0527 5.75979 10.1464 5.85355C10.2402 5.94732 10.3674 6 10.5 6H11.5C11.6326 6 11.7598 5.94732 11.8536 5.85355C11.9473 5.75979 12 5.63261 12 5.5C12 5.36739 11.9473 5.24021 11.8536 5.14645C11.7598 5.05268 11.6326 5 11.5 5H10.5C10.3674 5 10.2402 5.05268 10.1464 5.14645C10.0527 5.24021 10 5.36739 10 5.5Z" fill="black"/>
</svg>
